<svg width="31" height="31" viewBox="0 0 31 31" fill="none" xmlns="http://www.w3.org/2000/svg">
<path d="M22.7501 1.66116C23.8252 1.86633 24.4626 2.09184 25.0134 2.77021C25.7032 3.61976 25.6668 4.53798 25.5939 6.3744C25.3318 12.9764 23.8522 21.3001 15.5003 21.3001C7.14834 21.3001 5.66878 12.9764 5.40668 6.3744C5.33377 4.53798 5.29731 3.61976 5.98711 2.77021C6.6769 1.92066 7.50248 1.78137 9.15364 1.50278C10.7835 1.22778 12.9141 1 15.5003 1C16.5417 1 17.5093 1.03694 18.4001 1.09903" stroke="white" stroke-linecap="round"/>
<path d="M25.6496 5.35004L27.0251 5.80854C28.4607 6.28707 29.1785 6.52633 29.5891 7.09596C29.9996 7.66558 29.9996 8.4222 29.9995 9.93544L29.9995 10.0406C29.9995 11.2887 29.9995 11.9127 29.6991 12.4233C29.3986 12.9339 28.8531 13.2369 27.7621 13.8431L23.4746 16.2251" stroke="white"/>
<path d="M5.34993 5.35004L3.97442 5.80854C2.53883 6.28707 1.82104 6.52633 1.41049 7.09596C0.999939 7.66558 0.99996 8.4222 1 9.93544L1 10.0406C1.00004 11.2887 1.00005 11.9127 1.30048 12.4233C1.6009 12.9339 2.14642 13.2369 3.23742 13.8431L7.52493 16.2251" stroke="white"/>
<path d="M15.5 22.75V25.65" stroke="white" stroke-linecap="round"/>
<path d="M20.5748 30.0001H10.4248L10.9167 27.5408C11.0522 26.863 11.6473 26.3751 12.3385 26.3751H18.6611C19.3523 26.3751 19.9474 26.863 20.083 27.5408L20.5748 30.0001Z" stroke="white" stroke-linecap="round" stroke-linejoin="round"/>
<path d="M24.1999 30.0001H6.7998" stroke="white" stroke-linecap="round"/>
</svg>
