<svg width="30" height="30" viewBox="0 0 30 30" fill="none" xmlns="http://www.w3.org/2000/svg">
<path d="M20.5998 12.9C20.5998 14.0598 19.973 15 19.1998 15C18.4266 15 17.7998 14.0598 17.7998 12.9C17.7998 11.7402 18.4266 10.8 19.1998 10.8C19.973 10.8 20.5998 11.7402 20.5998 12.9Z" fill="white"/>
<ellipse cx="10.8004" cy="12.9" rx="1.4" ry="2.1" fill="white"/>
<path d="M29 15.4208C29 7.45642 22.732 1 15 1C7.26801 1 1 7.45642 1 15.4208V25.8122C1 27.6635 2.89137 28.8675 4.49888 28.0396C5.79816 27.3705 7.34592 27.4697 8.55459 28.2997C9.9143 29.2334 11.6857 29.2334 13.0454 28.2997L13.5391 27.9607C14.4238 27.3532 15.5762 27.3532 16.4609 27.9607L16.9546 28.2997C18.3143 29.2334 20.0857 29.2334 21.4454 28.2997C22.6541 27.4697 24.2018 27.3705 25.5011 28.0396C27.1086 28.8675 29 27.6635 29 25.8122V20.6165" stroke="white" stroke-linecap="round"/>
</svg>
