<svg width="67" height="67" viewBox="0 0 67 67" fill="none" xmlns="http://www.w3.org/2000/svg">
<circle cx="33.5" cy="33.5" r="33.5" fill="#231F20"/>
<path d="M44 26.9C44 22.2331 44 19.8996 42.5355 18.4498C41.0711 17 38.714 17 34 17C29.286 17 26.9289 17 25.4645 18.4498C24 19.8996 24 22.2331 24 26.9V40.1C24 44.7669 24 47.1004 25.4645 48.5502C26.9289 50 29.286 50 34 50C38.714 50 41.0711 50 42.5355 48.5502C44 47.1004 44 44.7669 44 40.1V33.5" stroke="white" stroke-linecap="round"/>
<path d="M16 17.7072L16.7071 17L47.6608 47.9538L46.9537 48.6609L16 17.7072Z" fill="white"/>
<path d="M35.9766 22.7449L35.9766 21.6375L31 21.6375L31 22.4646L32.5791 22.4646L34.7666 22.4202L32.5859 23.0594L32.5859 23.5105L34.8555 24.2215L32.5791 24.1771L31 24.1771L31 25.0042L35.9766 25.0042L35.9766 23.8968L33.9771 23.2884L35.9766 22.7449ZM31.7246 28.2362L35.9766 28.2362L35.9766 27.3407L31 27.3407L31 30.5878L31.7246 30.5878L31.7246 28.2362ZM33.2046 35.8706L33.9189 35.8706L33.9189 33.8198L35.2451 33.8198L35.2451 36.2021L35.9766 36.2021L35.9766 32.9243L31 32.9243L31 36.2158L31.7246 36.2158L31.7246 33.8198L33.2046 33.8198L33.2046 35.8706ZM33.0986 39.9024L31 41.191L31 42.254L33.7788 40.4938L35.9766 42.1822L35.9766 41.0919L34.271 39.8272L33.666 39.3727L35.9766 39.3727L35.9766 38.4737L31 38.4737L31 39.3727L32.5107 39.3727L33.0986 39.9024ZM33.1396 47.5095L33.8301 47.5095C34.0465 47.5072 34.2528 47.4867 34.4487 47.4479C34.6447 47.4092 34.827 47.3522 34.9956 47.277C35.1483 47.2064 35.2884 47.121 35.416 47.0207C35.5459 46.9204 35.6564 46.8042 35.7476 46.6721C35.841 46.5399 35.9139 46.3895 35.9663 46.2209C36.0187 46.0546 36.0449 45.8745 36.0449 45.6809C36.0449 45.4872 36.0187 45.3094 35.9663 45.1477C35.9162 44.9859 35.8444 44.84 35.751 44.7102C35.6553 44.578 35.5413 44.4618 35.4092 44.3615C35.2793 44.2635 35.1346 44.1804 34.9751 44.112C34.8088 44.0414 34.6287 43.9878 34.4351 43.9514C34.2414 43.9172 34.0397 43.899 33.8301 43.8967L33.1396 43.8967C32.9391 43.899 32.7466 43.916 32.562 43.9479C32.3797 43.9798 32.2088 44.0277 32.0493 44.0915C31.8784 44.1599 31.7235 44.2453 31.5845 44.3479C31.4478 44.4504 31.3304 44.5666 31.2324 44.6965C31.1367 44.8309 31.0627 44.9802 31.0103 45.1442C30.9578 45.3083 30.9316 45.4883 30.9316 45.6843C30.9316 45.8711 30.9556 46.0443 31.0034 46.2038C31.0513 46.3633 31.1185 46.5091 31.2051 46.6413C31.3008 46.7826 31.417 46.9079 31.5537 47.0173C31.6927 47.1267 31.8454 47.2178 32.0117 47.2907C32.1758 47.3614 32.3524 47.4149 32.5415 47.4514C32.7329 47.4878 32.9323 47.5072 33.1396 47.5095ZM33.8369 46.6071L33.1396 46.6071C33.0166 46.6071 32.8958 46.6003 32.7773 46.5866C32.6611 46.5752 32.5529 46.5559 32.4526 46.5285C32.3273 46.4966 32.2145 46.4533 32.1143 46.3986C32.014 46.3462 31.9297 46.2813 31.8613 46.2038C31.7998 46.1377 31.7531 46.0614 31.7212 45.9748C31.6893 45.8882 31.6733 45.7914 31.6733 45.6843C31.6733 45.5726 31.6904 45.4735 31.7246 45.3869C31.7588 45.3026 31.8066 45.2285 31.8682 45.1647C31.9342 45.0941 32.0186 45.0337 32.1211 44.9836C32.2259 44.9335 32.3387 44.8947 32.4595 44.8674C32.562 44.8423 32.6702 44.8241 32.7842 44.8127C32.9004 44.8036 33.0189 44.799 33.1396 44.799L33.8369 44.799C33.9622 44.799 34.0841 44.8047 34.2026 44.8161C34.3211 44.8275 34.4328 44.8457 34.5376 44.8708C34.6652 44.9004 34.7791 44.9414 34.8794 44.9938C34.9797 45.0485 35.064 45.1158 35.1323 45.1955C35.1847 45.257 35.2246 45.3277 35.252 45.4074C35.2816 45.4872 35.2964 45.5783 35.2964 45.6809C35.2964 45.7857 35.2804 45.8791 35.2485 45.9611C35.2189 46.0454 35.1779 46.1206 35.1255 46.1867C35.0571 46.2665 34.9728 46.3337 34.8726 46.3884C34.7723 46.4453 34.6606 46.4909 34.5376 46.5251C34.4328 46.5547 34.3211 46.5752 34.2026 46.5866C34.0841 46.6003 33.9622 46.6071 33.8369 46.6071Z" fill="white"/>
</svg>
