<svg width="34" height="32" viewBox="0 0 34 32" fill="none" xmlns="http://www.w3.org/2000/svg">
<path d="M18.2985 26.6749L9.79169 29.5105C5.15029 31.0576 2.8296 31.8312 1.60458 30.6062C0.379567 29.3812 1.15313 27.0605 2.70027 22.4191L5.53588 13.9122C6.82154 10.0552 7.46437 8.12676 8.98541 7.76769C10.5064 7.40862 11.9439 8.84603 14.8187 11.7209L20.4899 17.3921C23.3647 20.2669 24.8021 21.7043 24.4431 23.2253" stroke="white" stroke-linecap="round"/>
<path d="M16.5017 26.7566C16.5017 26.7566 15.2292 22.928 15.2292 20.3941C15.2292 17.8602 16.5017 14.0316 16.5017 14.0316M9.503 28.6654C9.503 28.6654 8.42829 24.0467 8.2305 21.0304C7.90371 16.0469 9.503 8.30536 9.503 8.30536" stroke="white" stroke-linecap="round"/>
<path d="M20.3185 12.7588L20.5601 11.5505C20.8041 10.3305 21.6832 9.33478 22.8635 8.94134C24.0438 8.5479 24.9228 7.55217 25.1668 6.33216L25.4085 5.12384" stroke="white" stroke-linecap="round"/>
<path d="M25.4539 16.5309L25.8112 16.7372C26.914 17.374 28.3007 17.2335 29.2535 16.3886C30.1164 15.6235 31.3452 15.4294 32.4018 15.8914L32.891 16.1053" stroke="white" stroke-linecap="round"/>
<path d="M13.6485 1C13.0821 1.92656 13.224 3.12053 13.9919 3.88844L14.1562 4.05272C14.8161 4.71259 15.0594 5.68198 14.7894 6.57526" stroke="white" stroke-linecap="round"/>
<path d="M18.7269 3.34358C19.0643 3.00613 19.2331 2.83741 19.4281 2.77556C19.5932 2.72325 19.7703 2.72325 19.9353 2.77556C20.1304 2.83741 20.2991 3.00613 20.6366 3.34358C20.974 3.68103 21.1428 3.84975 21.2046 4.04484C21.2569 4.20985 21.2569 4.38701 21.2046 4.55202C21.1428 4.74711 20.974 4.91584 20.6366 5.25328C20.2991 5.59073 20.1304 5.75946 19.9353 5.8213C19.7703 5.87361 19.5932 5.87361 19.4281 5.8213C19.2331 5.75946 19.0643 5.59073 18.7269 5.25328C18.3894 4.91584 18.2207 4.74711 18.1589 4.55202C18.1066 4.38701 18.1066 4.20985 18.1589 4.04484C18.2207 3.84975 18.3894 3.68103 18.7269 3.34358Z" fill="white"/>
<path d="M28.6415 8.49936C29.0534 8.0875 29.2593 7.88157 29.4916 7.79206C29.7635 7.68731 30.0646 7.68731 30.3364 7.79206C30.5687 7.88157 30.7747 8.0875 31.1865 8.49936C31.5984 8.91122 31.8043 9.11714 31.8938 9.34946C31.9986 9.62132 31.9986 9.9224 31.8938 10.1943C31.8043 10.4266 31.5984 10.6325 31.1865 11.0444C30.7747 11.4562 30.5687 11.6621 30.3364 11.7517C30.0646 11.8564 29.7635 11.8564 29.4916 11.7517C29.2593 11.6621 29.0534 11.4562 28.6415 11.0444C28.2297 10.6325 28.0237 10.4266 27.9342 10.1943C27.8295 9.9224 27.8295 9.62132 27.9342 9.34946C28.0237 9.11714 28.2297 8.91122 28.6415 8.49936Z" fill="white"/>
<path d="M7.59327 2.57904C7.94483 2.22748 8.51484 2.22748 8.8664 2.57904C9.21797 2.93061 9.21797 3.50061 8.8664 3.85218C8.51484 4.20375 7.94483 4.20375 7.59327 3.85218C7.2417 3.50061 7.2417 2.93061 7.59327 2.57904Z" fill="white"/>
<path d="M27.9534 21.6664C28.3049 21.3148 28.8749 21.3148 29.2265 21.6664C29.5781 22.018 29.5781 22.588 29.2265 22.9395C28.8749 23.2911 28.3049 23.2911 27.9534 22.9395C27.6018 22.588 27.6018 22.018 27.9534 21.6664Z" fill="white"/>
<path d="M25.3381 12.3147C25.6897 11.9632 26.2597 11.9632 26.6112 12.3147C26.9628 12.6663 26.9628 13.2363 26.6112 13.5879C26.2597 13.9394 25.6897 13.9394 25.3381 13.5879C24.9865 13.2363 24.9865 12.6663 25.3381 12.3147Z" fill="white"/>
</svg>
