<svg width="32" height="32" viewBox="0 0 32 32" fill="none" xmlns="http://www.w3.org/2000/svg">
<circle cx="15.5" cy="15.5" r="4.5" stroke="white"/>
<path d="M20 8L22 5" stroke="white" stroke-linecap="round"/>
<path d="M26 8L28 7" stroke="white" stroke-linecap="round"/>
<path d="M16 5L14 4" stroke="white" stroke-linecap="round"/>
<path d="M13.7482 8.4989L11.6991 9.04794" stroke="white" stroke-linecap="round"/>
<path d="M8 5L7 4" stroke="white" stroke-linecap="round"/>
<path d="M8.18745 11.7143L7.30961 9.78315" stroke="white" stroke-linecap="round"/>
<path d="M16.75 30.9953L16.7729 31.4948C16.9574 31.4863 17.1222 31.3769 17.2015 31.2101C17.2808 31.0433 17.2618 30.8464 17.152 30.698L16.75 30.9953ZM17.4159 27.4373L17.7132 27.8393L17.4159 27.4373ZM27.218 20.1894L26.9207 19.7874L27.218 20.1894ZM19.9286 26.2788L20.3306 25.9815L19.9286 26.2788ZM20.9791 22.0046L21.2764 22.4066L20.9791 22.0046ZM25.3742 22.2522L25.7762 21.9549V21.9549L25.3742 22.2522ZM30.4398 20.0722L30.1155 20.4527C30.2452 20.5633 30.4222 20.6001 30.5853 20.5505C30.7483 20.501 30.8749 20.3718 30.9211 20.2077L30.4398 20.0722ZM25.8759 22.9305L25.4739 23.2278C25.5605 23.3448 25.6937 23.4183 25.8388 23.4291C25.9839 23.4399 26.1265 23.387 26.2295 23.2841L25.8759 22.9305ZM26.0281 22.7784L26.3816 23.132C26.4959 23.0177 26.5479 22.8552 26.5212 22.6958L26.0281 22.7784ZM19.9286 26.9324L19.7785 27.4094C19.9562 27.4653 20.1504 27.4178 20.2822 27.286L19.9286 26.9324ZM20.2066 26.6546L20.5601 27.0082C20.7352 26.8331 20.7558 26.5563 20.6085 26.3572L20.2066 26.6546ZM3.05321 24.5217C3.2053 24.7522 3.51544 24.8158 3.74592 24.6637C3.9764 24.5116 4.03995 24.2014 3.88786 23.971L3.05321 24.5217ZM9.67227 29.0458C9.42388 28.9251 9.12471 29.0287 9.00406 29.2771C8.88341 29.5255 8.98696 29.8246 9.23536 29.9453L9.67227 29.0458ZM1.5 15.9976C1.5 7.99089 7.9918 1.5 16 1.5V0.5C7.43966 0.5 0.5 7.43846 0.5 15.9976H1.5ZM16 1.5C24.0082 1.5 30.5 7.99089 30.5 15.9976H31.5C31.5 7.43846 24.5603 0.5 16 0.5V1.5ZM17.152 30.698C16.5862 29.933 16.7201 28.5736 17.7132 27.8393L17.1187 27.0352C15.7057 28.08 15.4361 30.0597 16.348 31.2926L17.152 30.698ZM20.3306 25.9815C19.6206 25.0215 19.9215 23.4084 21.2764 22.4066L20.6818 21.6025C19.0292 22.8246 18.3895 25.0387 19.5266 26.5762L20.3306 25.9815ZM21.2764 22.4066C22.6313 21.4048 24.2621 21.5895 24.9722 22.5496L25.7762 21.9549C24.6391 20.4176 22.3345 20.3805 20.6818 21.6025L21.2764 22.4066ZM27.5153 20.5914C28.4359 19.9107 29.5223 19.9472 30.1155 20.4527L30.7641 19.6916C29.7358 18.8153 28.1223 18.8989 26.9207 19.7874L27.5153 20.5914ZM30.5 15.9976C30.5 17.3636 30.3112 18.6847 29.9585 19.9366L30.9211 20.2077C31.2983 18.8685 31.5 17.4562 31.5 15.9976H30.5ZM16.7271 30.4958C16.5094 30.5058 16.2645 30.4953 16 30.4953V31.4953C16.2036 31.4953 16.5278 31.506 16.7729 31.4948L16.7271 30.4958ZM24.9722 22.5496L25.4739 23.2278L26.2779 22.6332L25.7762 21.9549L24.9722 22.5496ZM26.5212 22.6958C26.4075 22.0164 26.7392 21.1653 27.5153 20.5914L26.9207 19.7874C25.8922 20.5479 25.3495 21.7528 25.5349 22.8609L26.5212 22.6958ZM26.2295 23.2841L26.3816 23.132L25.6746 22.4248L25.5224 22.5769L26.2295 23.2841ZM17.7132 27.8393C18.391 27.3381 19.1787 27.2205 19.7785 27.4094L20.0788 26.4555C19.1402 26.16 18.0237 26.366 17.1187 27.0352L17.7132 27.8393ZM19.5266 26.5762L19.8046 26.9519L20.6085 26.3572L20.3306 25.9815L19.5266 26.5762ZM20.2822 27.286L20.5601 27.0082L19.853 26.301L19.5751 26.5789L20.2822 27.286ZM3.88786 23.971C2.37853 21.6837 1.5 18.944 1.5 15.9976H0.5C0.5 19.1458 1.43935 22.0761 3.05321 24.5217L3.88786 23.971ZM16 30.4953C13.7303 30.4953 11.5838 29.9743 9.67227 29.0458L9.23536 29.9453C11.2801 30.9385 13.5757 31.4953 16 31.4953V30.4953Z" fill="white"/>
<path d="M1 17C1 17 4.27718 20 6.95621 20C8.76093 20 10.8371 18.6386 12 17.75" stroke="white"/>
<path d="M22 21C21.25 20.2165 19.707 19.6508 19 19" stroke="white"/>
<path d="M22.9713 11.4631L23.0709 13.5821" stroke="white" stroke-linecap="round"/>
<path d="M29.0125 13.1256L26.4954 15.3423" stroke="white" stroke-linecap="round"/>
<path d="M6.4963 16.9595L7.74915 15.2477" stroke="white" stroke-linecap="round"/>
<path d="M3.52384 13.5229L3.40585 11.4049" stroke="white" stroke-linecap="round"/>
</svg>
