<svg width="25" height="22" viewBox="0 0 25 22" fill="none" xmlns="http://www.w3.org/2000/svg">
<path d="M9.00599 19.1538L9.47322 18.5671L9.00599 19.1538ZM12.5 3.57416L11.957 4.09151C12.0985 4.24008 12.2948 4.32416 12.5 4.32416C12.7052 4.32416 12.9015 4.24008 13.043 4.09151L12.5 3.57416ZM15.994 19.1538L16.4612 19.7405L15.994 19.1538ZM6.6821 16.3571C6.3636 16.0923 5.89072 16.1358 5.6259 16.4543C5.36109 16.7728 5.40461 17.2457 5.72312 17.5105L6.6821 16.3571ZM1.49045 12.7037C1.68766 13.068 2.14281 13.2034 2.50707 13.0062C2.87133 12.809 3.00675 12.3538 2.80955 11.9896L1.49045 12.7037ZM1.75 7.7989C1.75 5.25046 3.17559 3.11171 5.12387 2.21203C7.02275 1.33516 9.56073 1.57639 11.957 4.09151L13.043 3.05682C10.2645 0.140451 7.05243 -0.330755 4.49501 0.850214C1.987 2.00837 0.25 4.69772 0.25 7.7989H1.75ZM8.53876 19.7405C9.12883 20.2104 9.75516 20.7056 10.3882 21.0793C11.0209 21.4528 11.7327 21.75 12.5 21.75V20.25C12.1173 20.25 11.6791 20.0995 11.1508 19.7876C10.6228 19.476 10.0772 19.0481 9.47322 18.5671L8.53876 19.7405ZM16.4612 19.7405C18.1087 18.4284 20.1931 16.9408 21.8292 15.0796C23.4909 13.1893 24.75 10.8553 24.75 7.7989H23.25C23.25 10.3921 22.1979 12.3883 20.7026 14.0893C19.1816 15.8195 17.2629 17.1845 15.5268 18.5671L16.4612 19.7405ZM24.75 7.7989C24.75 4.69772 23.013 2.00837 20.505 0.850214C17.9476 -0.330755 14.7355 0.140451 11.957 3.05682L13.043 4.09151C15.4393 1.57639 17.9772 1.33516 19.8761 2.21203C21.8244 3.11171 23.25 5.25046 23.25 7.7989H24.75ZM15.5268 18.5671C14.9228 19.0481 14.3772 19.476 13.8492 19.7876C13.3209 20.0995 12.8827 20.25 12.5 20.25V21.75C13.2673 21.75 13.9791 21.4528 14.6118 21.0793C15.2448 20.7056 15.8712 20.2104 16.4612 19.7405L15.5268 18.5671ZM9.47322 18.5671C8.56196 17.8414 7.62662 17.1424 6.6821 16.3571L5.72312 17.5105C6.6772 18.3038 7.68062 19.0571 8.53876 19.7405L9.47322 18.5671ZM2.80955 11.9896C2.15509 10.7807 1.75 9.40951 1.75 7.7989H0.25C0.25 9.67793 0.726677 11.2929 1.49045 12.7037L2.80955 11.9896Z" fill="#231F20"/>
</svg>
