<svg width="82" height="81" viewBox="0 0 82 81" fill="none" xmlns="http://www.w3.org/2000/svg">
<path d="M24.0805 17.6769C19.8552 13.8477 15.7092 10.0714 11.5632 6.32143C11.3519 6.11016 11.1142 5.92531 10.903 5.71405C9.71459 4.63132 9.82022 3.89189 11.2991 3.23169C13.7814 2.12255 16.3694 2.20177 18.9574 2.65071C23.8165 3.49576 28.253 5.50278 32.5047 7.90591C33.2177 8.30203 33.6138 8.27561 34.1684 7.66823C35.6473 6.08375 37.2053 4.57849 38.7634 3.04683C42.9095 -1.02001 48.772 -1.02 52.8917 3.07325C61.4215 11.5502 69.8984 20.0536 78.4018 28.5834C82.5215 32.7294 82.5215 38.592 78.3754 42.7645C76.8702 44.2962 75.3385 45.775 73.7276 47.3595C75.048 48.5478 76.3156 49.6834 77.5832 50.8189C78.1906 51.3735 78.8243 51.9017 79.4053 52.4826C82.0461 55.0442 82.231 58.9526 79.8014 61.6198C77.4511 64.2342 73.4899 64.4719 70.7435 62.1216C68.7893 60.4579 66.9143 58.6885 64.9865 56.9984C64.8545 56.8928 64.7225 56.7871 64.2999 56.4174C64.1151 56.7343 64.0095 57.1304 63.7454 57.3681C57.0113 64.1286 50.2509 70.889 43.4904 77.6495C39.0275 82.1124 33.2441 82.1124 28.8076 77.6759C20.4626 69.3309 12.1177 60.986 3.79919 52.6675C-0.610948 48.2574 -0.610942 42.474 3.77279 38.0639C10.2692 31.5675 16.7655 25.0711 23.2619 18.5748C23.526 18.2843 23.7636 18.0202 24.0805 17.6769ZM25.6122 19.0765C25.2953 19.367 25.084 19.5518 24.8728 19.7631C18.2972 26.3387 11.748 32.8879 5.17239 39.4635C1.5545 43.0814 1.5809 47.5971 5.1988 51.2415C13.5437 59.5864 21.8623 67.9313 30.2072 76.2498C33.8251 79.8677 38.3673 79.8942 41.9852 76.2763C48.7456 69.5158 55.5061 62.7818 62.2401 56.0213C62.4778 55.7836 62.7155 55.5196 62.9795 55.2291C59.5201 52.1129 56.1134 49.076 52.7332 46.0391C51.492 44.93 51.4921 44.8243 52.3899 43.3983C43.5168 35.3174 34.5909 27.2102 25.6122 19.0765ZM72.2487 46.0655C73.8068 44.5074 75.2593 43.0286 76.7381 41.5497C80.356 37.9054 80.356 33.3896 76.7381 29.7717C68.3932 21.4268 60.0747 13.1083 51.7297 4.76335C51.4392 4.47286 51.1224 4.15597 50.8055 3.89189C48.0854 1.56798 43.9658 1.3039 41.2457 3.62781C39.1595 5.42355 37.443 7.61542 35.568 9.62243C35.4624 9.54321 35.5944 9.64884 35.7265 9.72807C43.9658 14.8248 51.4128 20.9515 58.5958 27.395C59.5993 28.2929 59.5993 28.6362 58.675 29.6661C57.5131 30.9601 56.3511 32.2541 55.1364 33.6009C56.3511 34.6836 57.4603 35.7136 58.5958 36.7435C60.1539 35.1854 60.1539 35.1854 61.6855 36.5586C62.689 37.4565 63.6926 38.3544 64.6961 39.2522C67.1784 41.4969 69.6608 43.7416 72.2487 46.0655ZM56.8265 28.6626C56.7208 28.5042 56.6944 28.4513 56.6416 28.3985C49.3266 21.8493 41.7475 15.6435 33.2441 10.6259C28.5435 7.85309 23.6844 5.44996 18.2444 4.60491C16.5278 4.34083 14.7585 4.23519 12.91 4.81617C26.6421 17.2543 40.2422 29.5869 53.8688 41.9722C55.0307 40.7047 56.087 39.5163 57.2226 38.2751C55.8494 37.0339 54.5554 35.8456 53.235 34.6572C52.4427 33.9442 52.4428 33.5481 53.1558 32.7558C54.3705 31.3826 55.5853 30.0358 56.8265 28.6626ZM54.2913 44.5338C54.3705 44.6659 54.3969 44.7451 54.4233 44.7715C60.3387 50.0795 66.2277 55.3875 72.1431 60.6691C73.3315 61.7254 74.7839 61.9631 76.3156 61.4878C77.9265 61.0124 78.9564 59.9033 79.3261 58.266C79.7486 56.4702 79.1676 54.965 77.7944 53.7502C72.1167 48.6535 66.439 43.5567 60.7349 38.4336C60.5764 38.3015 60.3916 38.1695 60.2067 38.0374C60.0747 38.1431 59.9954 38.1959 59.9162 38.2751C58.0677 40.3614 56.1927 42.4476 54.2913 44.5338Z" fill="#231F20"/>
<path d="M10.4803 23.1698C7.49623 23.1962 5.0403 20.8195 5.01389 17.8354C4.98748 14.7985 7.39062 12.3425 10.4011 12.3161C13.4116 12.2897 15.894 14.7457 15.8676 17.7562C15.8676 20.7403 13.4644 23.1434 10.4803 23.1698ZM10.4011 21.1364C12.2761 21.1628 13.8078 19.6576 13.8606 17.809C13.9134 15.9604 12.3817 14.4024 10.5332 14.3495C8.60538 14.3231 7.0473 15.8284 7.02089 17.7298C7.02089 19.5783 8.55257 21.1364 10.4011 21.1364Z" fill="#231F20"/>
<path d="M65.4628 64.023C68.4469 64.0494 70.85 66.4525 70.85 69.4366C70.85 72.4471 68.3941 74.9031 65.3835 74.8767C62.4258 74.8503 59.9963 72.3943 59.9963 69.4366C59.9699 66.4261 62.4523 63.9966 65.4628 64.023ZM68.843 69.4102C68.8166 67.5617 67.2585 66.03 65.4099 66.03C63.5614 66.03 62.0033 67.5881 62.0033 69.4366C62.0033 71.3116 63.6142 72.9225 65.4892 72.8697C67.3377 72.8168 68.8694 71.2324 68.843 69.4102Z" fill="#231F20"/>
<path d="M54.291 44.5338C56.1924 42.4212 58.0674 40.3613 59.9423 38.3015C59.9952 38.2223 60.1008 38.1695 60.2328 38.0638C60.3913 38.1959 60.5761 38.3015 60.761 38.46C66.4387 43.5567 72.1164 48.6535 77.8205 53.7766C79.1674 54.9914 79.7748 56.4966 79.3522 58.2924C78.9561 59.9297 77.9526 61.0388 76.3417 61.5142C74.8365 61.9631 73.384 61.7518 72.1693 60.6955C66.2539 55.4139 60.3649 50.1059 54.4495 44.7979C54.3966 44.7451 54.3702 44.6658 54.291 44.5338Z" fill="white"/>
<path d="M18.6136 33.1256C18.508 30.8281 19.9076 28.8475 22.0203 28.2665C24.2121 27.6591 26.4568 28.6098 27.5131 30.6696C27.7772 31.1714 28.0413 31.3562 28.6223 31.4355C31.0518 31.726 32.8475 33.6273 33.1644 36.1889C33.2437 36.7963 33.4021 37.1396 34.0095 37.4301C35.8581 38.3808 36.8616 39.9389 36.888 42.0251C36.888 42.6589 37.0464 43.0022 37.5746 43.3983C39.9777 45.0884 40.7436 48.1517 39.4496 50.7661C39.1855 51.2943 39.1591 51.664 39.4232 52.2186C40.321 54.0407 40.2418 55.9157 39.2647 57.6058C38.4196 59.0847 37.3105 60.4051 36.307 61.8047C35.9637 62.28 35.5676 62.729 35.1979 63.2043C34.432 64.2078 34.1151 65.2377 34.6433 66.5053C35.0658 67.5616 35.3035 68.6972 35.6732 69.8063C35.8845 70.4929 35.8845 71.1003 35.1186 71.338C34.2736 71.6021 33.9303 71.0475 33.719 70.3609C33.3757 69.1989 32.9796 68.037 32.6891 66.875C32.425 65.8451 31.8176 65.1849 30.867 64.8416C29.4145 64.3399 27.9356 63.9173 26.4568 63.4156C24.8459 62.8874 23.235 62.2536 22.2051 60.854C21.5713 59.9825 21.2809 58.8734 20.8055 57.8699C20.6207 57.5002 20.4358 57.0248 20.1189 56.8136C17.4517 55.1763 16.4218 52.3506 17.4517 49.3929C17.5837 49.0496 17.4781 48.5215 17.2932 48.1782C16.1577 46.2768 16.0785 44.3754 17.1348 42.474C17.3989 41.9987 17.4253 41.7346 17.1348 41.2592C15.8936 39.1202 16.2897 36.5322 17.9534 34.7893C18.3496 34.3668 18.5872 33.7858 18.8777 33.284C18.7985 33.2312 18.7193 33.1784 18.6136 33.1256ZM33.3757 62.2272C34.3792 60.986 35.3299 59.8505 36.2278 58.6885C36.6503 58.134 37.0464 57.553 37.3633 56.9456C38.2084 55.3611 38.2876 53.8031 37.152 52.3242C36.6503 51.6904 36.7823 51.1623 37.2313 50.5549C38.7894 48.363 38.0763 45.775 35.6468 44.6395C34.8546 44.2698 34.5905 43.8208 34.8018 42.9494C35.2243 41.1272 34.168 39.4635 32.425 38.9882C31.0518 38.592 31.0518 38.592 31.1574 37.1396C31.3423 34.9477 29.8106 33.3104 27.566 33.4425C26.6417 33.4953 26.1927 33.2048 25.9815 32.2805C25.6118 30.6696 24.1065 29.8246 22.5748 30.2735C21.096 30.6961 20.2509 32.3069 20.8319 33.8122C21.1752 34.7101 21.0168 35.2646 20.1453 35.74C18.1911 36.8491 17.8478 39.1994 19.3266 40.8895C20.1189 41.7874 20.1189 42.0251 19.3002 42.9494C18.0591 44.349 18.0855 46.2504 19.4323 47.5708C20.0925 48.2046 20.1981 48.7327 19.6964 49.5514C18.3231 51.8225 19.2474 54.4104 21.7562 55.3347C22.5484 55.6252 22.8389 56.0742 22.7861 56.8928C22.6805 58.3188 23.3142 59.4544 24.4762 60.273C26.536 61.6991 28.992 62.0159 31.4479 62.9138C30.7613 60.6955 30.1804 58.6621 29.5202 56.6815C29.4409 56.4175 29.0976 56.2062 28.8335 56.0477C27.7772 55.4668 26.6945 54.8858 25.6118 54.3312C25.0044 54.0143 24.6875 53.5126 25.0308 52.8788C25.3741 52.2186 25.9551 52.245 26.5624 52.5619C27.1962 52.8788 27.8036 53.1957 28.5959 53.6182C28.1733 52.2186 27.83 50.9774 27.4075 49.789C27.2755 49.3929 26.9321 48.9968 26.5888 48.7855C25.5589 48.1517 24.4498 47.6236 23.3671 47.0426C22.7861 46.7257 22.4164 46.2768 22.7861 45.5902C23.1558 44.93 23.7104 44.9564 24.3178 45.2469C24.9516 45.5638 25.5854 45.9071 26.3512 46.3032C26.2192 45.8278 26.1135 45.5109 26.0343 45.2205C25.6646 44.0321 25.2684 42.8437 25.0044 41.629C24.9251 41.2593 25.2421 40.599 25.559 40.467C25.8494 40.335 26.4304 40.6519 26.7737 40.8895C26.9586 41.0216 27.0114 41.4177 27.0906 41.7082C27.4867 42.9758 27.8565 44.2434 28.3318 45.7486C28.7807 44.9036 29.0976 44.2962 29.4409 43.7152C29.7578 43.1342 30.2068 42.7645 30.8934 43.1342C31.5536 43.5039 31.5536 44.0585 31.2367 44.6659C30.6821 45.7486 30.1011 46.8049 29.5202 47.8877C29.3881 48.1253 29.1768 48.4158 29.2296 48.6007C29.6258 50.0267 30.0747 51.4263 30.5765 53.0372C31.0254 52.2186 31.3423 51.6112 31.6856 51.0038C32.0025 50.4228 32.4514 50.0531 33.138 50.4228C33.7982 50.7925 33.7983 51.3471 33.4814 51.9545C32.9004 53.0372 32.3194 54.0935 31.7648 55.1763C31.6064 55.4668 31.4743 55.8893 31.5536 56.1798C32.0817 58.1076 32.7155 60.1146 33.3757 62.2272Z" fill="#231F20"/>
<path d="M52.3102 52.9844C54.8718 55.2554 55.3999 58.1603 53.7626 60.5635C52.2574 62.7817 49.3789 63.574 46.9494 62.4384C44.2822 61.1708 43.2787 58.4508 44.3086 55.2554C41.7734 53.2484 41.1132 50.0795 42.9882 47.4651C44.5463 45.2732 47.4776 44.613 49.8543 45.8278C52.3894 47.1482 53.3137 49.8154 52.3102 52.9844ZM52.6535 57.5793C52.6799 55.7044 51.1747 54.1727 49.3261 54.1463C47.3983 54.1199 45.8666 55.6516 45.8666 57.5529C45.8666 59.4279 47.3719 60.9332 49.2469 60.9596C51.1218 60.9596 52.6271 59.4543 52.6535 57.5793ZM45.5762 53.5125C47.2399 52.3242 47.7944 52.1129 49.8278 52.1657C50.488 52.1921 50.5937 51.8488 50.6993 51.3735C51.0426 49.6569 50.0919 47.9932 48.481 47.4387C46.8966 46.8841 45.1536 47.5971 44.3614 49.076C43.5163 50.6605 43.9653 52.377 45.5762 53.5125Z" fill="#231F20"/>
<path d="M69.8455 38.9618C66.8086 38.9618 64.3791 36.5058 64.4055 33.4953C64.4319 30.5112 66.8614 28.1081 69.8191 28.0817C72.8296 28.0817 75.2592 30.5376 75.2592 33.5745C75.2328 36.585 72.856 38.9618 69.8455 38.9618ZM69.7927 30.1415C67.8914 30.1679 66.4389 31.6467 66.4389 33.5481C66.4389 35.4495 67.9442 36.9283 69.8191 36.9283C71.7469 36.9283 73.2522 35.3967 73.2258 33.4689C73.1994 31.5939 71.6941 30.1415 69.7927 30.1415Z" fill="#231F20"/>
</svg>
