<svg width="20" height="20" viewBox="0 0 20 20" fill="none" xmlns="http://www.w3.org/2000/svg">
<path fill-rule="evenodd" clip-rule="evenodd" d="M3.23223 1.56548C3.70107 1.09664 4.33696 0.833252 5 0.833252H12.0833C12.3043 0.833252 12.5163 0.921049 12.6726 1.07733L17.2559 5.66066C17.4122 5.81694 17.5 6.02891 17.5 6.24992V16.6666C17.5 17.3296 17.2366 17.9655 16.7678 18.4344C16.2989 18.9032 15.663 19.1666 15 19.1666H5C4.33696 19.1666 3.70107 18.9032 3.23223 18.4344C2.76339 17.9655 2.5 17.3296 2.5 16.6666V3.33325C2.5 2.67021 2.76339 2.03433 3.23223 1.56548ZM5 2.49992C4.77899 2.49992 4.56702 2.58772 4.41074 2.744C4.25446 2.90028 4.16667 3.11224 4.16667 3.33325V16.6666C4.16667 16.8876 4.25446 17.0996 4.41074 17.2558C4.56702 17.4121 4.77899 17.4999 5 17.4999H15C15.221 17.4999 15.433 17.4121 15.5893 17.2558C15.7455 17.0996 15.8333 16.8876 15.8333 16.6666V6.5951L11.7382 2.49992H5Z" fill="white"/>
<path fill-rule="evenodd" clip-rule="evenodd" d="M11.6666 0.833252C12.1269 0.833252 12.5 1.20635 12.5 1.66659V5.83325H16.6666C17.1269 5.83325 17.5 6.20635 17.5 6.66658C17.5 7.12682 17.1269 7.49992 16.6666 7.49992H11.6666C11.2064 7.49992 10.8333 7.12682 10.8333 6.66658V1.66659C10.8333 1.20635 11.2064 0.833252 11.6666 0.833252Z" fill="white"/>
<path fill-rule="evenodd" clip-rule="evenodd" d="M13.0893 10.2441C13.4147 10.5695 13.4147 11.0972 13.0893 11.4226L9.75594 14.7559C9.43051 15.0814 8.90287 15.0814 8.57743 14.7559L6.91076 13.0893C6.58533 12.7638 6.58533 12.2362 6.91076 11.9107C7.2362 11.5853 7.76384 11.5853 8.08928 11.9107L9.16669 12.9882L11.9108 10.2441C12.2362 9.91864 12.7638 9.91864 13.0893 10.2441Z" fill="white"/>
</svg>
