<svg width="71" height="79" viewBox="0 0 71 79" fill="none" xmlns="http://www.w3.org/2000/svg">
<path d="M43.6784 18.5186C47.271 16.6314 50.5451 16.8815 53.4555 19.8374C54.4105 17.5864 55.8429 15.8584 58.2304 15.2899C59.2763 15.0398 60.4131 15.0398 61.5045 15.0853C62.3686 15.1308 62.846 15.8356 62.7551 16.6087C62.6414 17.359 62.0275 17.8365 61.1407 17.7228C59.0716 17.4955 57.4573 18.1321 56.4341 20.0193C56.3886 20.0875 56.3659 20.1785 56.3432 20.2467C56.3432 20.2694 56.3432 20.2921 56.3432 20.3376C57.2527 20.2694 58.1849 20.0875 59.0944 20.1785C62.6414 20.4968 64.6423 22.7478 65.8246 25.8628C66.8251 28.5003 66.8933 31.2288 66.4613 34.0028C66.4158 34.2984 66.3703 34.6167 66.3249 34.8895C67.1662 34.6167 67.9392 34.2529 68.7578 34.1165C70.1447 33.8663 70.8041 34.4575 70.8041 35.8445C70.8041 49.6233 70.8041 63.4249 70.8041 77.2037C70.8041 78.5452 70.3494 79 69.0306 79C46.6116 79 24.1925 79 1.79626 79C0.432015 79 0 78.5452 0 77.1355C0 63.4704 0 49.7825 0 36.1173C0 34.2984 0.568445 33.8436 2.34196 34.1619C2.50112 34.1847 2.66029 34.2074 2.88766 34.2301C2.45565 32.2975 2.02364 30.4785 1.63711 28.614C0.568451 23.3162 0.0227318 17.9729 0.0227318 12.5614C0.0227318 10.0149 0.272843 7.46828 1.04591 5.01264C1.29602 4.21684 1.63709 3.42103 2.04636 2.6707C3.61524 -0.0577829 6.23005 -0.739912 8.93579 0.828965C10.9822 1.98857 12.4601 3.76209 13.8016 5.62655C16.5983 9.51464 18.6219 13.8347 20.4182 18.2458C20.5546 18.5868 20.691 18.9279 20.8274 19.269C20.8501 19.3144 20.9184 19.3372 20.8047 19.269C22.1007 17.9957 23.374 16.7224 24.6928 15.4946C25.0111 15.199 25.4204 14.9034 25.8296 14.767C27.1029 14.3804 27.4213 13.5392 27.2394 12.3341C27.1711 11.9248 27.2394 11.4928 27.2394 10.9926C26.0115 10.7425 25.8296 9.8557 25.8751 8.76431C25.9206 7.30912 25.8751 5.87667 25.8979 4.42148C25.8979 3.23914 26.3753 2.73891 27.5349 2.73891C30.9683 2.73891 34.4016 2.73891 37.835 2.73891C39.04 2.73891 39.5175 3.21639 39.5175 4.46694C39.5175 6.03582 39.4948 7.58197 39.5175 9.15084C39.5403 10.1058 39.1765 10.7425 38.1533 10.9698C38.1533 11.8793 38.1305 12.7661 38.176 13.6756C38.176 13.8575 38.3125 14.1076 38.4716 14.1985C40.518 15.1535 42.2687 16.6314 43.6784 18.5186ZM2.88766 37.2542C2.81945 37.2997 2.75123 37.3452 2.70575 37.3906C2.70575 50.3282 2.70575 63.2657 2.70575 76.2033C19.9634 76.2033 37.1528 76.2033 54.3195 76.2033C54.3195 63.2203 54.3195 50.2827 54.3195 37.3679C54.2513 37.3224 54.1604 37.2542 54.0922 37.2087C53.8193 37.5498 53.5919 37.8909 53.2964 38.2092C50.727 41.165 47.2027 41.1423 44.5652 38.1864C42.8372 36.2538 41.4047 36.2538 39.6767 38.2092C39.5857 38.3229 39.4948 38.4366 39.4038 38.5275C37.2211 41.0059 33.4239 41.0059 31.2184 38.5275C30.8546 38.1182 30.5135 37.709 30.1043 37.3679C29.1266 36.5493 27.8987 36.5493 26.921 37.3679C26.5118 37.709 26.1707 38.1182 25.8069 38.5275C23.6014 41.0059 19.827 41.0059 17.6214 38.5275C17.3713 38.2547 17.144 37.9591 16.8711 37.709C15.5524 36.3902 14.1881 36.4129 12.8693 37.7544C12.642 37.9818 12.4373 38.2092 12.2327 38.4366C9.9135 41.0059 6.23005 41.0059 3.93357 38.4366C3.59251 38.05 3.22872 37.6407 2.88766 37.2542ZM67.9847 37.4134C67.9165 37.3452 67.8483 37.2997 67.8028 37.2315C67.4845 37.5953 67.1434 37.9818 66.8251 38.3456C64.4831 41.0741 60.7315 41.0741 58.3668 38.3911C58.0257 38.0045 57.6392 37.6635 57.2072 37.2315C57.2072 50.3509 57.2072 63.2885 57.2072 76.226C60.8451 76.226 64.3922 76.226 68.0074 76.226C67.9847 63.243 67.9847 50.3282 67.9847 37.4134ZM18.9857 35.8672C18.9857 35.2761 18.963 34.8213 18.9857 34.3893C19.0994 30.7741 19.2131 27.1588 19.304 23.5209C19.304 23.2935 19.2358 23.0888 19.1676 22.8615C17.7124 18.7233 15.9844 14.676 13.8243 10.8561C12.4373 8.44599 10.9594 6.08131 8.8903 4.1941C6.34372 1.85216 4.70663 2.28417 3.63798 5.55835C2.84217 7.94577 2.63754 10.4469 2.68302 12.948C2.77397 20.9515 4.02451 28.7959 6.2755 36.4811C6.50288 37.2315 7.00312 37.5043 7.68524 37.6407C8.91305 37.8681 9.70884 37.186 10.4819 36.3675C13.1194 33.4571 15.8934 33.2752 18.9857 35.8672ZM35.3339 10.9471C33.4694 10.9471 31.6959 10.9471 29.8769 10.9471C29.8769 12.1067 29.8769 13.1981 29.8769 14.3122C29.8769 15.7902 29.7632 15.9038 28.3762 16.495C24.7155 18.0411 22.4873 20.7696 21.8734 24.6805C21.6232 26.3175 21.7142 28.0228 21.7142 29.6827C21.6914 32.3202 21.7142 34.9577 21.7142 37.7999C22.3281 37.5271 22.8283 37.3906 23.2376 37.095C23.6469 36.8222 23.9879 36.4129 24.3062 36.0264C26.58 33.3661 30.3999 33.3661 32.6963 36.0264C33.0374 36.4129 33.3784 36.7767 33.765 37.1178C34.4698 37.709 35.3111 37.7772 36.1751 37.4816C36.6526 37.3224 36.88 37.0951 36.7436 36.4811C35.9478 32.7295 36.3798 29.0688 37.9486 25.6127C38.8354 23.68 40.1314 21.9292 41.3138 19.9738C40.2224 18.4277 38.5853 17.1771 36.5844 16.4041C35.4703 15.972 35.2884 15.6992 35.2884 14.5169C35.3339 13.3345 35.3339 12.1749 35.3339 10.9471ZM39.1765 34.8668C42.337 33.4798 44.2924 33.8891 46.5661 36.322C46.8617 36.6403 47.1573 36.9359 47.4983 37.186C48.3396 37.7999 49.2491 37.8454 50.1359 37.3452C50.6361 37.0496 51.0681 36.5948 51.4546 36.1628C53.933 33.3206 57.5483 33.3434 60.0721 36.1628C60.5496 36.7085 61.1635 37.1405 61.7774 37.5271C62.1867 37.7772 62.5732 37.6635 62.7324 37.1178C63.0507 35.9809 63.4827 34.844 63.6873 33.6844C64.1875 30.7968 64.0057 27.9774 62.505 25.3626C61.3454 23.3844 59.6628 22.5431 57.5028 23.0206C56.5933 23.2253 55.7292 23.7255 54.9334 24.2257C53.8648 24.9078 53.0235 24.7487 52.546 23.5891C50.8862 19.7465 47.3392 18.837 44.1787 21.5882C40.1769 25.067 38.8809 29.6372 39.1765 34.8668ZM36.6526 8.12766C36.6526 7.21817 36.6526 6.37688 36.6526 5.49012C33.9241 5.49012 31.2639 5.49012 28.6036 5.49012C28.6036 6.39962 28.6036 7.26365 28.6036 8.12766C31.3093 8.12766 33.9469 8.12766 36.6526 8.12766Z" fill="#231F20"/>
<path d="M36.6525 8.12765C33.9695 8.12765 31.3093 8.12765 28.6035 8.12765C28.6035 7.28637 28.6035 6.42234 28.6035 5.49011C31.2638 5.49011 33.9468 5.49011 36.6525 5.49011C36.6525 6.37687 36.6525 7.21816 36.6525 8.12765Z" fill="white"/>
<path d="M11.9827 10.6288C11.9145 10.8789 11.869 11.129 11.8008 11.3563C10.8231 14.244 9.84542 17.1544 8.84498 20.0193C8.70855 20.4058 8.41296 20.906 8.0719 21.0425C7.66263 21.2016 7.04873 21.1334 6.6622 20.9288C6.09376 20.6104 5.98008 19.9965 6.20745 19.3599C6.98052 17.0634 7.77631 14.7442 8.54938 12.4477C8.82223 11.6747 9.0496 10.8789 9.34519 10.1285C9.61804 9.4464 10.2319 9.05987 10.9141 9.33272C11.3916 9.51462 11.7326 10.0376 12.1419 10.4014C12.0737 10.4923 12.0282 10.5605 11.9827 10.6288Z" fill="#231F20"/>
<path d="M15.1204 22.5886C15.0977 22.725 15.0522 22.9524 14.984 23.157C13.9835 26.1129 13.0058 29.046 12.0054 31.9791C11.6643 32.9795 10.823 33.3888 10.0272 32.9568C9.36783 32.593 9.14048 32.0018 9.36785 31.297C10.391 28.2047 11.4369 25.1352 12.5056 22.0656C12.7557 21.3153 13.3241 20.9742 14.0972 21.1334C14.7566 21.2698 15.1204 21.77 15.1204 22.5886Z" fill="#231F20"/>
</svg>
