<svg width="62" height="80" viewBox="0 0 62 80" fill="none" xmlns="http://www.w3.org/2000/svg">
<path d="M3.25218 79.5354C3.02496 79.4321 2.79774 79.3289 2.57052 79.2256C1.00067 78.5233 0.133116 77.3046 0.00918042 75.5695C-0.0114755 75.3423 0.00918042 75.1151 0.00918042 74.8672C0.00918042 58.3218 0.00918042 41.7764 0.00918042 25.231C0.00918042 23.9916 0.381002 23.4133 1.18658 23.4133C1.97151 23.4339 2.32266 23.9916 2.32266 25.2516C2.32266 41.7351 2.32266 58.2392 2.32266 74.7226C2.32266 76.6229 2.88036 77.1807 4.73939 77.1807C22.2143 77.1807 39.6892 77.1807 57.1642 77.1807C58.9819 77.1807 59.5602 76.6023 59.5602 74.7846C59.5602 72.2852 59.5602 69.7858 59.5602 67.2865C59.5602 66.3363 60.0147 65.7992 60.7583 65.8199C61.4606 65.8406 61.8737 66.3776 61.8737 67.2865C61.8737 69.8685 61.8737 72.4298 61.8737 75.0118C61.8737 77.3046 60.9442 78.6059 58.796 79.3702C58.734 79.3908 58.672 79.4528 58.6307 79.5148C40.1643 79.5354 21.6979 79.5354 3.25218 79.5354Z" fill="#231F20"/>
<path d="M52.1032 11.6807C52.1032 12.2798 52.1238 12.8375 52.1032 13.3952C52.0412 15.7913 50.2648 17.5883 47.9513 17.5883C45.6378 17.5883 43.8614 15.7913 43.7995 13.3952C43.7788 12.8375 43.7995 12.2798 43.7995 11.6807C40.8663 11.6807 38.0158 11.6807 35.1033 11.6807C35.1033 12.2798 35.124 12.8375 35.1033 13.3952C35.0414 15.7913 33.265 17.5883 30.9515 17.609C28.638 17.609 26.841 15.8119 26.7997 13.4158C26.779 12.8581 26.7997 12.3004 26.7997 11.6807C23.8872 11.6807 21.0366 11.6807 18.1035 11.6807C18.1035 12.2591 18.1241 12.8168 18.1035 13.3745C18.0415 15.7706 16.2858 17.5883 13.9723 17.5883C11.6382 17.609 9.84112 15.7706 9.79981 13.3332C9.79981 12.7962 9.79981 12.2591 9.79981 11.6601C7.75487 11.6601 5.79256 11.6188 3.80959 11.6807C2.94204 11.7014 2.36367 12.5276 2.36367 13.4985C2.34302 15.3368 2.34302 17.1546 2.36367 18.9929C2.36367 19.6333 2.15712 20.1084 1.51678 20.3149C0.731859 20.5421 0.0502186 20.0051 0.0502186 19.0962C0.0295627 17.1339 0.00890674 15.1716 0.0502186 13.2299C0.112186 11.1024 1.86794 9.38793 3.9955 9.34662C5.89584 9.30531 7.79618 9.34662 9.79981 9.34662C9.79981 7.85939 9.77915 6.45479 9.82046 5.05019C9.84112 4.43051 9.88244 3.81083 10.0683 3.23247C10.6674 1.33212 12.609 0.154733 14.53 0.443916C16.5956 0.753755 18.0828 2.42688 18.1242 4.55444C18.1655 6.12429 18.1242 7.69414 18.1242 9.3053C21.0366 9.3053 23.8872 9.3053 26.8203 9.3053C26.8203 7.77676 26.8203 6.26888 26.8203 4.761C26.8203 3.48033 27.2128 2.36492 28.1836 1.51803C29.4849 0.381951 30.9721 0.072109 32.5626 0.753755C34.2151 1.45606 35.062 2.77803 35.124 4.55444C35.1653 6.12429 35.124 7.69414 35.124 9.3053C38.0365 9.3053 40.8663 9.3053 43.8201 9.3053C43.8201 8.39644 43.8201 7.50824 43.8201 6.62003C43.8201 5.91773 43.7995 5.23609 43.8201 4.53379C43.9027 2.19967 45.6998 0.402601 47.972 0.402601C50.2441 0.402601 52.0619 2.19967 52.1238 4.53379C52.1651 6.10364 52.1238 7.67349 52.1238 9.34662C52.4543 9.34662 52.7228 9.34662 52.9914 9.34662C54.6232 9.34662 56.2343 9.32596 57.8662 9.34662C60.0763 9.38793 61.8115 11.123 61.8734 13.3332C61.8734 13.5398 61.8734 13.7463 61.8734 13.9529C61.8734 29.6307 61.8734 45.2879 61.8734 60.9658C61.8734 62.2258 61.5223 62.7629 60.696 62.7629C59.8905 62.7629 59.56 62.2052 59.56 60.9451C59.56 45.3293 59.56 29.7134 59.56 14.0975C59.56 12.2178 59.0229 11.6807 57.1226 11.6807C55.5527 11.6807 53.9829 11.6807 52.413 11.6807C52.3304 11.6394 52.2891 11.6601 52.1032 11.6807ZM12.072 8.95416C12.072 10.3588 12.072 11.784 12.072 13.1886C12.072 14.4486 12.7743 15.2542 13.869 15.2749C14.9844 15.2955 15.7281 14.49 15.7487 13.1886C15.7694 10.3794 15.7694 7.59087 15.7487 4.78166C15.7487 3.50099 14.9638 2.67475 13.869 2.69541C12.7949 2.71606 12.0926 3.54231 12.072 4.78166C12.072 6.16561 12.072 7.54956 12.072 8.95416ZM32.7692 8.95416C32.7692 7.57022 32.7692 6.16561 32.7692 4.78166C32.7485 3.50099 31.9843 2.67475 30.8895 2.69541C29.8154 2.71606 29.0925 3.54231 29.0925 4.78166C29.0925 7.59087 29.0925 10.3794 29.0925 13.1886C29.0925 14.4486 29.7947 15.2542 30.8895 15.2749C32.0049 15.2955 32.7485 14.49 32.7692 13.1886C32.7692 11.784 32.7692 10.3588 32.7692 8.95416ZM49.7897 9.03678C49.7897 7.63218 49.7897 6.20692 49.7897 4.80231C49.769 3.52165 49.0254 2.69541 47.9307 2.71607C46.8565 2.73672 46.1336 3.56296 46.1336 4.80231C46.1129 7.61152 46.1129 10.4001 46.1336 13.2093C46.1336 14.5106 46.8772 15.3162 47.9926 15.2955C49.0874 15.2749 49.7897 14.4899 49.7897 13.2299C49.7897 11.8047 49.7897 10.4207 49.7897 9.03678Z" fill="#231F20"/>
<path d="M37.8917 50.5139C33.8845 50.5139 29.8565 50.5139 25.8493 50.5139C23.825 50.5139 22.3998 49.3572 22.0693 47.4775C21.7388 45.6391 22.9988 43.7388 24.8578 43.367C25.2296 43.2843 25.6221 43.2637 26.0146 43.2637C33.9258 43.2637 41.837 43.2637 49.7276 43.2637C52.103 43.2637 53.7142 44.7716 53.7142 46.9404C53.6935 48.9027 52.2063 50.4726 50.2027 50.5139C47.6207 50.5759 45.0593 50.5346 42.4773 50.5346C40.9281 50.5139 39.3996 50.5139 37.8917 50.5139ZM37.8297 48.2004C41.6924 48.2004 45.5551 48.2004 49.4177 48.2004C49.7069 48.2004 49.9961 48.2211 50.2646 48.1591C50.9463 48.0559 51.3181 47.6427 51.3594 46.9611C51.4007 46.2794 51.0702 45.825 50.4092 45.6391C50.1407 45.5565 49.8515 45.5565 49.5623 45.5565C41.7544 45.5565 33.9671 45.5565 26.1591 45.5565C25.87 45.5565 25.5808 45.5565 25.3122 45.6185C24.6513 45.7837 24.3208 46.2588 24.3208 46.8991C24.3001 47.5394 24.8165 48.0558 25.4775 48.1385C25.7667 48.1798 26.0352 48.1591 26.3244 48.1591C30.1664 48.2004 33.9877 48.2004 37.8297 48.2004Z" fill="#231F20"/>
<path d="M37.8091 58.611C41.8577 58.611 45.8856 58.5903 49.9342 58.611C52.6195 58.6317 54.3545 61.0484 53.487 63.4651C52.9499 64.9524 51.5866 65.8612 49.7896 65.8612C46.9804 65.8819 44.1712 65.8612 41.362 65.8612C36.2186 65.8612 31.0546 65.8612 25.9113 65.8612C23.8664 65.8612 22.4205 64.7252 22.0693 62.8661C21.6562 60.7799 23.1641 58.7349 25.2916 58.6317C26.8821 58.549 28.4933 58.5903 30.0838 58.5903C32.6451 58.611 35.2271 58.611 37.8091 58.611ZM37.8298 60.9451C33.9878 60.9451 30.1664 60.9451 26.3244 60.9451C26.0353 60.9451 25.7461 60.9451 25.4776 60.9658C24.8166 61.0484 24.3208 61.5648 24.3208 62.2051C24.3415 62.8661 24.6513 63.3412 25.3329 63.4858C25.6015 63.5478 25.8907 63.5478 26.1799 63.5478C33.9465 63.5478 41.7338 63.5478 49.5004 63.5478C49.8309 63.5478 50.182 63.5478 50.4919 63.4445C51.1116 63.2586 51.4007 62.7835 51.3594 62.1432C51.3181 61.5028 50.967 61.0897 50.3266 60.9658C50.0374 60.9038 49.7069 60.9245 49.3971 60.9245C45.5551 60.9245 41.6924 60.9451 37.8298 60.9451Z" fill="#231F20"/>
<path d="M37.8301 35.1872C33.7609 35.1872 29.6917 35.2078 25.6225 35.1872C23.1851 35.1665 21.5326 32.977 22.1109 30.6428C22.5241 28.9904 23.9906 27.9369 25.8703 27.9369C33.0379 27.9369 40.1849 27.9369 47.3525 27.9369C48.2614 27.9369 49.1496 27.9163 50.0584 27.9369C52.124 27.9989 53.6732 29.5687 53.6732 31.593C53.6732 33.6173 52.1034 35.1872 50.0171 35.1872C45.9685 35.1872 41.8993 35.1872 37.8301 35.1872ZM37.8301 32.853C41.197 32.853 44.5846 32.853 47.9515 32.853C48.6745 32.853 49.3974 32.8737 50.1204 32.8324C50.8433 32.7911 51.3391 32.2953 51.3597 31.6137C51.4011 30.932 50.9466 30.3743 50.2443 30.2504C50.0171 30.2091 49.7899 30.2297 49.542 30.2297C41.7341 30.2297 33.9468 30.2297 26.1389 30.2297C25.829 30.2297 25.5192 30.2297 25.23 30.3123C24.5897 30.5189 24.2592 30.994 24.3211 31.655C24.3831 32.316 24.7962 32.7291 25.4572 32.8117C25.7051 32.853 25.9736 32.8324 26.2215 32.8324C30.1048 32.853 33.9674 32.853 37.8301 32.853Z" fill="#231F20"/>
<path d="M12.7334 31.4898C14.6957 29.1144 16.6167 26.8009 18.5584 24.4874C18.7236 24.2809 18.8682 24.0743 19.0748 23.9091C19.5498 23.5166 20.0869 23.4959 20.562 23.8884C21.0371 24.2809 21.1197 24.7973 20.8099 25.355C20.6859 25.5822 20.5 25.7681 20.3348 25.9747C18.1452 28.598 15.9557 31.2419 13.7662 33.8652C12.8573 34.96 12.093 34.898 11.3701 33.7C10.7504 32.6878 10.1307 31.6963 9.51105 30.6842C9.07727 29.9612 9.20121 29.2796 9.80023 28.9285C10.3993 28.5773 11.0396 28.7632 11.494 29.4862C11.8865 30.1265 12.2996 30.7875 12.7334 31.4898Z" fill="#231F20"/>
<path d="M12.774 46.7545C14.7157 44.4204 16.6367 42.1069 18.5577 39.7935C18.6816 39.6489 18.7849 39.5043 18.9088 39.3803C19.4045 38.8639 20.0862 38.8226 20.5613 39.2358C21.0364 39.6489 21.119 40.2892 20.6852 40.8263C20.1481 41.5492 19.5491 42.2309 18.9708 42.9125C17.215 45.0401 15.4593 47.147 13.6829 49.2539C12.8773 50.2247 12.0717 50.1834 11.4107 49.1093C10.7704 48.0765 10.13 47.0644 9.51035 46.0109C9.05592 45.2673 9.13854 44.627 9.71691 44.2345C10.3159 43.842 10.9976 44.0486 11.4727 44.7715C11.8651 45.3706 12.2369 45.9902 12.6294 46.5893C12.65 46.6719 12.6914 46.6719 12.774 46.7545Z" fill="#231F20"/>
<path d="M12.7335 62.2258C14.6545 59.9124 16.5135 57.6609 18.3726 55.43C18.5791 55.1822 18.7857 54.893 19.0335 54.6864C19.488 54.2733 20.0044 54.232 20.5001 54.6245C21.0165 55.0376 21.0991 55.554 20.7686 56.1323C20.686 56.2976 20.5621 56.4215 20.4382 56.5661C18.228 59.2101 16.0384 61.8747 13.8283 64.5187C12.7955 65.7374 12.1138 65.696 11.2876 64.3328C10.6885 63.3619 10.0895 62.4117 9.51116 61.4409C9.07738 60.718 9.16 60.057 9.73837 59.6645C10.358 59.2721 10.9984 59.4786 11.4735 60.2429C11.9072 60.8626 12.279 61.5029 12.7335 62.2258Z" fill="#231F20"/>
</svg>
