<svg width="23" height="22" viewBox="0 0 23 22" fill="none" xmlns="http://www.w3.org/2000/svg">
<path d="M5.7021 6.77203C3.24242 7.32856 2.01258 7.60682 1.71999 8.54773C1.42739 9.48864 2.26582 10.4691 3.94266 12.4299L4.37649 12.9372C4.85299 13.4944 5.09125 13.773 5.19843 14.1177C5.30561 14.4624 5.26959 14.8341 5.19755 15.5776L5.13196 16.2544C4.87845 18.8706 4.75169 20.1787 5.51772 20.7602C6.28374 21.3417 7.43524 20.8115 9.73824 19.7512L10.3341 19.4768C10.9885 19.1755 11.3157 19.0248 11.6626 19.0248C12.0094 19.0248 12.3366 19.1755 12.9911 19.4768L13.5869 19.7512C15.8899 20.8115 17.0414 21.3417 17.8074 20.7602C18.5734 20.1787 18.4467 18.8706 18.1932 16.2544M19.3825 12.4299C21.0593 10.4691 21.8977 9.48864 21.6051 8.54773C21.3125 7.60682 20.0827 7.32856 17.623 6.77203L16.9867 6.62805C16.2877 6.4699 15.9382 6.39083 15.6576 6.17781C15.377 5.96479 15.197 5.64193 14.8371 4.99623L14.5094 4.40837C13.2428 2.13612 12.6094 1 11.6626 1C10.7157 1 10.0824 2.13613 8.81573 4.40838" stroke="#EBE100" stroke-width="1.5" stroke-linecap="round"/>
</svg>
