<svg width="23" height="22" viewBox="0 0 23 22" fill="none" xmlns="http://www.w3.org/2000/svg">
<path d="M5.48125 6.77209C3.02157 7.32862 1.79173 7.60688 1.49913 8.54779C1.20654 9.4887 2.04496 10.4691 3.72181 12.43L4.15563 12.9373C4.63214 13.4945 4.87039 13.7731 4.97757 14.1178C5.08476 14.4625 5.04874 14.8342 4.9767 15.5776L4.91111 16.2545C4.65759 18.8707 4.53083 20.1788 5.29686 20.7603C6.06289 21.3418 7.21439 20.8116 9.51739 19.7512L10.1132 19.4769C10.7676 19.1756 11.0949 19.0249 11.4417 19.0249C11.7886 19.0249 12.1158 19.1756 12.7702 19.4769L13.366 19.7512C15.669 20.8116 16.8205 21.3418 17.5866 20.7603C18.3526 20.1788 18.2258 18.8707 17.9723 16.2545M19.1616 12.43C20.8385 10.4691 21.6769 9.4887 21.3843 8.54779C21.0917 7.60688 19.8619 7.32862 17.4022 6.77209L16.7658 6.62811C16.0669 6.46996 15.7174 6.39089 15.4368 6.17787C15.1562 5.96485 14.9762 5.642 14.6162 4.99629L14.2885 4.40843C13.0219 2.13619 12.3886 1.00006 11.4417 1.00006M19.1616 12.43L19.1616 12.43C20.8385 10.4691 21.6769 9.4887 21.3843 8.54779C21.0917 7.60688 19.8619 7.32862 17.4022 6.77209L16.7658 6.62811L16.7658 6.62811C16.0669 6.46996 15.7174 6.39089 15.4368 6.17787C15.1562 5.96485 14.9762 5.642 14.6163 4.9963L14.6162 4.99629L14.2885 4.40843C13.0219 2.13619 12.3886 1.00006 11.4417 1.00006" stroke="#EBE100" stroke-width="1.5" stroke-linecap="round"/>
<path d="M17.4022 6.77209C19.8619 7.32862 21.0917 7.60688 21.3843 8.54779C21.6769 9.4887 20.8385 10.4691 19.1616 12.43L18.7278 12.9373C18.2513 13.4945 18.013 13.7731 17.9058 14.1178C17.7987 14.4625 17.8347 14.8342 17.9067 15.5776L17.9723 16.2545C18.2258 18.8707 18.3526 20.1788 17.5866 20.7603C16.8205 21.3418 15.669 20.8116 13.366 19.7512L12.7702 19.4769C12.1158 19.1756 11.7886 19.0249 11.4417 19.0249C11.0949 19.0249 10.7676 19.1756 10.1132 19.4769L9.51738 19.7512C7.21439 20.8116 6.06289 21.3418 5.29686 20.7603C4.53083 20.1788 4.65759 18.8707 4.91111 16.2545M3.72181 12.43C2.04496 10.4691 1.20654 9.4887 1.49913 8.54779C1.79173 7.60688 3.02157 7.32862 5.48125 6.77209L6.1176 6.62811C6.81656 6.46996 7.16604 6.39089 7.44665 6.17787C7.72726 5.96485 7.90724 5.642 8.26718 4.99629L8.59488 4.40843C9.86152 2.13619 10.4948 1.00006 11.4417 1.00006M3.72181 12.43L3.7218 12.43C2.04496 10.4691 1.20654 9.4887 1.49913 8.54779C1.79173 7.60688 3.02157 7.32862 5.48125 6.77209L6.1176 6.62811L6.1176 6.62811C6.81656 6.46996 7.16604 6.39089 7.44665 6.17787C7.72726 5.96485 7.90723 5.642 8.26717 4.9963L8.26718 4.99629L8.59488 4.40843C9.86152 2.13619 10.4948 1.00006 11.4417 1.00006" stroke="#EBE100" stroke-width="1.5" stroke-linecap="round"/>
<path d="M3.72181 12.43C2.04496 10.4691 1.20654 9.4887 1.49913 8.54779C1.79173 7.60688 3.02157 7.32862 5.48125 6.77209L6.1176 6.62811C6.81656 6.46996 7.16604 6.39089 7.44665 6.17787C7.72726 5.96485 7.90724 5.64199 8.26718 4.99629L8.59488 4.40843C9.86152 2.13619 10.4948 1.00006 11.4417 1.00006" stroke="#EBE100" stroke-width="1.5" stroke-linecap="round"/>
<path d="M7.94172 6.00006L9.94172 3.00006L10.9417 1.00006H11.9417L13.4417 3.00006L14.9417 5.50006L15.9417 6.50006L20.9417 7.50006L21.4417 8.50006L20.9417 10.5001L17.9417 14.0001V17.0001V19.5001L17.4417 21.0001H16.4417L13.4417 19.5001L11.4417 19.0001L8.44171 20.5001L5.94171 21.0001H5.44171L4.94171 20.5001V16.0001V14.0001L4.44171 13.0001L1.44172 10.0001C1.04172 9.60006 1.27505 8.83339 1.44172 8.50006L1.94172 8.00006L3.94172 7.50006L7.94172 6.00006Z" fill="#EBE100"/>
</svg>
