<svg width="28" height="24" viewBox="0 0 28 24" fill="none" xmlns="http://www.w3.org/2000/svg">
<path d="M24.5667 6.3776C24.5775 6.624 24.5775 6.8592 24.5775 7.1056C24.5883 14.576 19.0998 23.2001 9.06266 23.2001C6.10231 23.2001 3.19597 22.3152 0.700195 20.6576C1.13236 20.7136 1.56453 20.736 1.9967 20.736C4.44926 20.736 6.83699 19.8848 8.77095 18.3056C6.43724 18.2608 4.38444 16.6816 3.67136 14.3744C4.49248 14.5424 5.33521 14.5088 6.13472 14.2736C3.59573 13.7584 1.76981 11.44 1.75901 8.7408C1.75901 8.7184 1.75901 8.696 1.75901 8.6736C2.5153 9.1104 3.36884 9.3568 4.23318 9.3792C1.84544 7.7216 1.09995 4.41759 2.54772 1.83038C5.3244 5.36959 9.4084 7.5088 13.7949 7.744C13.3519 5.78399 13.957 3.72319 15.3723 2.33438C17.5656 0.195175 21.0229 0.307175 23.0974 2.58078C24.3182 2.33438 25.4959 1.86398 26.5655 1.20318C26.1549 2.51358 25.3014 3.62239 24.167 4.32799C25.2474 4.19359 26.3062 3.89119 27.3002 3.44319C26.5655 4.58559 25.6363 5.57119 24.5667 6.3776Z" fill="#231F20"/>
</svg>
