<svg width="33" height="24" viewBox="0 0 33 24" fill="none" xmlns="http://www.w3.org/2000/svg">
<path d="M32.3203 3.61531C31.9397 2.2018 30.8252 1.08731 29.4117 0.706751C26.8294 0 16.4999 0 16.4999 0C16.4999 0 6.17048 0 3.58812 0.679569C2.2018 1.06013 1.06013 2.2018 0.679569 3.61531C0 6.19767 0 11.5527 0 11.5527C0 11.5527 0 16.9349 0.679569 19.49C1.06013 20.9035 2.17462 22.018 3.58812 22.3986C6.19767 23.1053 16.4999 23.1053 16.4999 23.1053C16.4999 23.1053 26.8294 23.1053 29.4117 22.4258C30.8252 22.0452 31.9397 20.9307 32.3203 19.5172C32.9999 16.9349 32.9999 11.5799 32.9999 11.5799C32.9999 11.5799 33.027 6.19767 32.3203 3.61531Z" fill="#231F20"/>
<path d="M13.2109 16.4999L21.8007 11.5527L13.2109 6.60539V16.4999Z" fill="white"/>
</svg>
